<svg width="20" height="20" viewBox="0 0 20 20" fill="none" xmlns="http://www.w3.org/2000/svg">
<path d="M5.99999 16C4.89501 16 4.01001 16.895 4.01001 18C4.01001 19.105 4.89501 20 5.99999 20C7.10498 20 8.00001 19.105 8.00001 18C8.00001 16.895 7.10498 16 5.99999 16Z" fill="black"/>
<path d="M7.10001 11H14.55C15.3 11 15.955 10.585 16.3 9.97002L19.875 3.48C19.955 3.33998 20 3.17498 20 3C20 2.445 19.55 2.00001 19 2.00001H4.215L3.26498 0H0V2.00001H2.00001L5.595 9.58499L4.245 12.035C4.08998 12.325 3.99998 12.65 3.99998 13C3.99998 14.105 4.89501 15 6 15H18V13H6.42501C6.285 13 6.17503 12.89 6.17503 12.75C6.17503 12.705 6.18501 12.665 6.20503 12.63L7.10001 11Z" fill="black"/>
<path d="M16 16C14.895 16 14.01 16.895 14.01 18C14.01 19.105 14.895 20 16 20C17.105 20 18 19.105 18 18C18 16.895 17.105 16 16 16Z" fill="black"/>
</svg>
