<svg width="20" height="20" viewBox="0 0 20 20" fill="none" xmlns="http://www.w3.org/2000/svg">
<g clip-path="url(#clip0_1837_602)">
<path d="M0.319703 10.7771L7.5424 18C7.74857 18.2062 8.02337 18.3193 8.31637 18.3193C8.6097 18.3193 8.88433 18.206 9.09051 18L9.74628 17.3441C9.95229 17.1382 10.0658 16.8632 10.0658 16.5701C10.0658 16.2771 9.95229 15.9928 9.74628 15.787L5.53266 11.5641L18.9195 11.5641C19.5231 11.5641 20 11.0916 20 10.4879L20 9.56055C20 8.95681 19.5231 8.43665 18.9195 8.43665L5.48486 8.43665L9.74612 4.19018C9.95213 3.98401 10.0656 3.71653 10.0656 3.42336C10.0656 3.13052 9.95213 2.85913 9.74612 2.65312L9.09035 1.9993C8.88417 1.79313 8.60954 1.68077 8.31621 1.68077C8.02321 1.68077 7.74841 1.79459 7.54224 2.00077L0.319541 9.22347C0.112876 9.4303 -0.00078126 9.7064 3.12449e-05 9.99989C-0.000619187 10.2944 0.112876 10.5706 0.319703 10.7771Z" fill="black"/>
</g>
<defs>
<clipPath id="clip0_1837_602">
<rect width="20" height="20" fill="white" transform="translate(20 20) rotate(-180)"/>
</clipPath>
</defs>
</svg>
